<svg
        width="100%"
        height="100%"
        viewBox="0 0 12 11"
        fill="none"
        xmlns="http://www.w3.org/2000/svg"
>
    <g clip-path="url(#clip0_4920_10669)">
        <path
                d="M5.99999 6.55573C6.59069 6.55573 7.06955 6.08306 7.06955 5.5C7.06955 4.91694 6.59069 4.44427 5.99999 4.44427C5.40928 4.44427 4.93042 4.91694 4.93042 5.5C4.93042 6.08306 5.40928 6.55573 5.99999 6.55573Z"
                fill="#61DAFB"
        />
        <path
                fill-rule="evenodd"
                clip-rule="evenodd"
                d="M0.878417 4.84158C0.618907 5.07281 0.509888 5.29583 0.509888 5.50032C0.509888 5.70482 0.618907 5.92784 0.878417 6.15907C1.1379 6.39028 1.52741 6.60981 2.03002 6.79923C3.0335 7.17742 4.43668 7.41651 5.99902 7.41651C7.56135 7.41651 8.96454 7.17742 9.96802 6.79923C10.4706 6.60981 10.8601 6.39028 11.1196 6.15907C11.3791 5.92784 11.4881 5.70482 11.4881 5.50032C11.4881 5.29583 11.3791 5.07281 11.1196 4.84158C10.8601 4.61037 10.4706 4.39084 9.96802 4.20142C8.96454 3.82323 7.56135 3.58414 5.99902 3.58414C4.43668 3.58414 3.0335 3.82323 2.03002 4.20142C1.52741 4.39084 1.1379 4.61037 0.878417 4.84158ZM1.85166 3.74035C2.92534 3.33571 4.39172 3.09061 5.99902 3.09061C7.60632 3.09061 9.0727 3.33571 10.1464 3.74035C10.6823 3.94235 11.1333 4.1889 11.4547 4.47523C11.776 4.76155 11.9881 5.10753 11.9881 5.50032C11.9881 5.89312 11.776 6.2391 11.4547 6.52541C11.1333 6.81175 10.6823 7.0583 10.1464 7.2603C9.0727 7.66494 7.60632 7.91004 5.99902 7.91004C4.39172 7.91004 2.92534 7.66494 1.85166 7.2603C1.31569 7.0583 0.864726 6.81175 0.543377 6.52541C0.222055 6.2391 0.0098877 5.89312 0.0098877 5.50032C0.0098877 5.10753 0.222055 4.76155 0.543377 4.47523C0.864726 4.1889 1.31569 3.94235 1.85166 3.74035Z"
                fill="#61DAFB"
        />
        <path
                fill-rule="evenodd"
                clip-rule="evenodd"
                d="M4.01666 0.793764C3.68402 0.687547 3.43384 0.705866 3.25442 0.808111C3.07501 0.910357 2.93384 1.11506 2.86072 1.45251C2.7876 1.78993 2.78975 2.23266 2.87485 2.757C3.04478 3.80389 3.5366 5.12291 4.31777 6.45843C5.09894 7.79394 6.0103 8.87387 6.84386 9.54257C7.26135 9.87749 7.64872 10.1007 7.98132 10.2069C8.31395 10.3131 8.56414 10.2948 8.74355 10.1926C8.92297 10.0903 9.06413 9.8856 9.13726 9.54815C9.21037 9.21074 9.20823 8.76801 9.12312 8.24366C8.95319 7.19677 8.46137 5.87776 7.6802 4.54224C6.89904 3.20672 5.98767 2.1268 5.15411 1.45809C4.73662 1.12317 4.34925 0.89997 4.01666 0.793764ZM5.46947 1.0751C6.36133 1.79058 7.30957 2.92152 8.11322 4.29547C8.91687 5.66943 9.43501 7.04547 9.61682 8.16559C9.70758 8.72475 9.71675 9.23352 9.6262 9.65138C9.53565 10.0692 9.33818 10.4236 8.99355 10.62C8.64892 10.8164 8.23928 10.808 7.82741 10.6765C7.41552 10.5449 6.97372 10.2827 6.5285 9.92556C5.63664 9.21008 4.6884 8.07914 3.88475 6.70519C3.08111 5.33124 2.56296 3.9552 2.38115 2.83508C2.29039 2.27591 2.28123 1.76715 2.37178 1.34928C2.46232 0.931456 2.65979 0.577097 3.00442 0.380701C3.34905 0.184305 3.75869 0.192677 4.17056 0.324194C4.58245 0.455722 5.02425 0.717939 5.46947 1.0751Z"
                fill="#61DAFB"
        />
        <path
                fill-rule="evenodd"
                clip-rule="evenodd"
                d="M9.13732 1.45252C9.0642 1.11507 8.92303 0.910368 8.74362 0.808123C8.5642 0.705877 8.31402 0.687558 7.98138 0.793775C7.64878 0.899982 7.26142 1.12318 6.84392 1.45811C6.01037 2.12681 5.099 3.20673 4.31783 4.54225C3.53667 5.87777 3.04485 7.19678 2.87492 8.24368C2.78981 8.76802 2.78767 9.21075 2.86078 9.54816C2.93391 9.88562 3.07507 10.0903 3.25449 10.1926C3.4339 10.2948 3.68409 10.3131 4.01672 10.2069C4.34932 10.1007 4.73669 9.87751 5.15418 9.54258C5.98774 8.87388 6.8991 7.79395 7.68027 6.45844C8.46144 5.12292 8.95326 3.8039 9.12318 2.75701C9.20829 2.23267 9.21044 1.78994 9.13732 1.45252ZM9.61689 2.83509C9.43508 3.95521 8.91693 5.33125 8.11328 6.7052C7.30964 8.07915 6.3614 9.2101 5.46953 9.92557C5.02432 10.2827 4.58252 10.545 4.17062 10.6765C3.75876 10.808 3.34911 10.8164 3.00449 10.62C2.65986 10.4236 2.46238 10.0692 2.37184 9.65139C2.28129 9.23353 2.29046 8.72476 2.38122 8.1656C2.56303 7.04548 3.08117 5.66944 3.88482 4.29548C4.68847 2.92153 5.63671 1.79059 6.52857 1.07512C6.97379 0.71795 7.41558 0.455733 7.82748 0.324205C8.23935 0.192688 8.64899 0.184316 8.99362 0.380712C9.33824 0.577108 9.53572 0.931467 9.62626 1.3493C9.71681 1.76716 9.70765 2.27592 9.61689 2.83509Z"
                fill="#61DAFB"
        />
    </g>
    <defs>
        <clipPath id="clip0_4920_10669">
            <rect
                    width="12"
                    height="10.5385"
                    fill="white"
                    transform="translate(0 0.230774)"
            />
        </clipPath>
    </defs>
</svg>